<svg width="87" height="28" viewBox="0 0 87 28" fill="none" xmlns="http://www.w3.org/2000/svg">
<g clip-path="url(#clip0_925_15237)">
<path d="M33.0273 0.494461L21.6388 27.5764H14.2087L8.60443 5.96559C8.26419 4.63438 7.97015 4.14669 6.93401 3.58631C5.24457 2.67234 2.45466 1.81573 0 1.28334L0.168989 0.494461H12.1297C13.6537 0.494461 15.0242 1.50596 15.3704 3.25621L18.3302 18.9254L25.6452 0.492653L33.0273 0.494461ZM62.1397 18.7344C62.1697 11.5866 52.2233 11.1933 52.2917 7.99987C52.313 7.02811 53.2431 5.99539 55.2732 5.73123C56.2804 5.59982 59.0553 5.49912 62.205 6.94322L63.4396 1.20025C61.7483 0.588835 59.5723 0 56.8648 0C49.9172 0 45.0278 3.68113 44.9866 8.95222C44.9413 12.851 48.4751 15.0266 51.1396 16.3217C53.8792 17.6489 54.798 18.501 54.788 19.6881C54.7681 21.5047 52.6029 22.3072 50.5791 22.3383C47.0453 22.3925 44.9961 21.3855 43.3615 20.6278L42.0875 26.5609C43.7298 27.3123 46.7612 27.9675 49.9045 28C57.2893 28 62.1194 24.3645 62.142 18.7344H62.1397ZM80.488 27.5764H86.9889L81.3112 0.494461H75.3119C74.6711 0.488956 74.0435 0.675424 73.5103 1.02969C72.9771 1.38396 72.5631 1.8897 72.3217 2.48133L61.7737 27.5764H69.1544L70.6191 23.5314H79.6372L80.488 27.5764ZM72.6452 17.9807L76.3448 7.81202L78.4742 17.9807H72.6452ZM43.0702 0.494461L37.2579 27.5764H30.2292L36.0437 0.494461H43.0702Z" fill="#1434CB"/>
</g>
<defs>
<clipPath id="clip0_925_15237">
<rect width="86.9867" height="28" fill="white"/>
</clipPath>
</defs>
</svg>
