<?xml version="1.0" encoding="UTF-8"?>
<svg id="uuid-f21b76e5-55d3-4158-ac43-9e40834e1fa2" data-name="Layer 1"
  xmlns="http://www.w3.org/2000/svg" viewBox="0 0 190.27 46.21">
  <defs>
    <style>
      .uuid-de8f6545-886b-4f52-9e51-cda82cb29508 {
        fill: #004739;
        fill-rule: evenodd;
      }
    </style>
  </defs>
  <polygon class="uuid-de8f6545-886b-4f52-9e51-cda82cb29508" points="0 1.92 8.51 1.92 19.45 32.8 30.52 1.92 39.03 1.92 23.37 45.39 15.39 45.39 0 1.92 0 1.92"/>
  <path class="uuid-de8f6545-886b-4f52-9e51-cda82cb29508" d="M45.48,0c1.41,0,2.63,.51,3.65,1.53,1.01,1.03,1.51,2.27,1.51,3.72s-.49,2.67-1.5,3.68c-1.01,1.02-2.21,1.52-3.6,1.52-1.44,0-2.67-.51-3.68-1.55-1.02-1.03-1.52-2.29-1.52-3.76s.5-2.63,1.5-3.64c1.01-1,2.22-1.5,3.64-1.5h0Zm-4.05,13.23h8.1V45.39h-8.1V13.23h0Z"/>
  <polygon class="uuid-de8f6545-886b-4f52-9e51-cda82cb29508" points="55.32 1.39 63.36 1.39 63.36 13.23 68.14 13.23 68.14 20.18 63.36 20.18 63.36 45.39 55.32 45.39 55.32 20.18 51.19 20.18 51.19 13.23 55.32 13.23 55.32 1.39 55.32 1.39"/>
  <path class="uuid-de8f6545-886b-4f52-9e51-cda82cb29508" d="M93.78,13.23h8.04V45.39h-8.04v-3.4c-1.57,1.5-3.16,2.57-4.74,3.24-1.59,.66-3.31,.99-5.16,.99-4.16,0-7.75-1.61-10.78-4.83-3.04-3.22-4.55-7.22-4.55-12.01s1.46-9.03,4.4-12.2c2.94-3.17,6.51-4.76,10.7-4.76,1.93,0,3.74,.37,5.44,1.1,1.69,.73,3.26,1.83,4.7,3.28v-3.55h0Zm-8.48,6.63c-2.5,0-4.58,.88-6.23,2.64-1.65,1.77-2.48,4.02-2.48,6.78,0,2.78,.84,5.06,2.52,6.86,1.68,1.8,3.76,2.69,6.22,2.69,2.54,0,4.65-.89,6.32-2.65,1.67-1.75,2.51-4.06,2.51-6.93s-.84-5.06-2.51-6.79c-1.67-1.74-3.79-2.6-6.35-2.6h0Z"/>
  <polygon class="uuid-de8f6545-886b-4f52-9e51-cda82cb29508" points="106.63 .83 114.7 .83 114.7 45.39 106.63 45.39 106.63 .83 106.63 .83"/>
  <path class="uuid-de8f6545-886b-4f52-9e51-cda82cb29508" d="M143.28,13.23h8.04V45.39h-8.04v-3.4c-1.57,1.5-3.16,2.57-4.74,3.24-1.59,.66-3.31,.99-5.16,.99-4.16,0-7.75-1.61-10.78-4.83-3.04-3.22-4.55-7.22-4.55-12.01,0-4.96,1.46-9.03,4.4-12.2,2.93-3.17,6.51-4.76,10.7-4.76,1.93,0,3.74,.37,5.44,1.1,1.69,.73,3.26,1.83,4.7,3.28v-3.55h0Zm-8.48,6.63c-2.5,0-4.58,.88-6.23,2.64s-2.48,4.02-2.48,6.78,.84,5.06,2.52,6.86c1.68,1.8,3.76,2.69,6.22,2.69,2.54,0,4.65-.89,6.32-2.65,1.67-1.75,2.51-4.06,2.51-6.93s-.84-5.06-2.51-6.79c-1.67-1.74-3.79-2.6-6.35-2.6h0Z"/>
  <path class="uuid-de8f6545-886b-4f52-9e51-cda82cb29508" d="M165,.83v15.96c1.46-1.45,3.04-2.55,4.73-3.28,1.69-.73,3.51-1.1,5.44-1.1,4.2,0,7.77,1.59,10.7,4.76,2.94,3.18,4.4,7.24,4.4,12.2s-1.51,8.8-4.55,12.01c-3.04,3.22-6.63,4.83-10.78,4.83-1.86,0-3.58-.33-5.17-.99-1.59-.67-3.18-1.73-4.76-3.24v3.4s-8.01,0-8.01,0V.83h8.01Zm8.48,19.03c-2.54,0-4.65,.87-6.32,2.6-1.67,1.72-2.51,3.99-2.51,6.79s.84,5.17,2.51,6.93c1.67,1.76,3.78,2.65,6.32,2.65,2.46,0,4.54-.9,6.22-2.69,1.68-1.8,2.52-4.07,2.52-6.86,0-2.75-.83-5.01-2.48-6.78-1.65-1.77-3.74-2.64-6.26-2.64h0Z"/>
</svg>