<?xml version="1.0" encoding="UTF-8"?>
<!DOCTYPE svg PUBLIC "-//W3C//DTD SVG 1.1//EN" "http://www.w3.org/Graphics/SVG/1.1/DTD/svg11.dtd">
<!-- Creator: CorelDRAW X8 -->
<svg xmlns="http://www.w3.org/2000/svg" xml:space="preserve" width="240mm" height="55mm" version="1.1" style="shape-rendering:geometricPrecision; text-rendering:geometricPrecision; image-rendering:optimizeQuality; fill-rule:evenodd; clip-rule:evenodd"
viewBox="0 0 24000 5500"
 xmlns:xlink="http://www.w3.org/1999/xlink">
 <defs>
  <style type="text/css">
   <![CDATA[
    .fil1 {fill:#333333}
    .fil0 {fill:#EE4036}
   ]]>
  </style>
 </defs>
 <g id="Слой_x0020_1">
  <metadata id="CorelCorpID_0Corel-Layer"/>
  <g id="_536502064">
   <g id="_617297032">
    <path class="fil0" d="M1422 2507l1231 0c100,209 55,570 318,570 89,0 139,-93 164,-167 31,-90 53,-157 80,-251 17,-59 123,-477 166,-509 2,84 269,1222 299,1343 35,139 68,325 231,325 140,0 179,-173 217,-286l339 -1210c32,37 56,102 79,146 114,219 171,239 437,238 292,-1 585,-26 874,-26 -44,187 -362,564 -492,726 -26,32 -29,40 -61,71l-718 659c-262,200 -527,394 -812,565 -101,61 -72,70 -172,9l-648 -438c-630,-473 -1127,-942 -1488,-1663 -20,-39 -28,-67 -44,-102zm1549 -105l-27 0c-23,-277 -305,-199 -397,-199l-1218 -13c-2,-86 -26,-158 -26,-331 0,-331 166,-595 374,-805 159,-161 515,-347 831,-347 341,0 443,11 741,159 394,195 350,459 533,255 28,-32 61,-64 92,-93 183,-170 532,-321 805,-321l159 0c597,0 1218,521 1218,1125 0,290 -2,254 -67,530 -196,0 -369,7 -569,13 -98,3 -110,13 -278,13 -97,0 -194,0 -291,0l-236 -479c-43,-71 -116,-149 -218,-121 -144,39 -197,328 -242,487 -29,102 -55,188 -80,291l-151 577c-25,-40 -277,-1200 -307,-1321 -51,-203 -64,-347 -249,-347 -166,0 -272,477 -326,666 -22,76 -65,188 -71,261zm-2026 -570c0,656 238,1117 609,1602 150,196 319,365 493,540 45,44 81,85 130,122 100,77 273,245 431,363 102,78 995,731 1095,701l485 -297c54,-32 96,-66 149,-102 208,-141 405,-287 597,-449l668 -629c606,-655 1142,-1746 586,-2579 -102,-152 -218,-292 -365,-403 -56,-42 -98,-69 -157,-108 -495,-334 -1289,-336 -1827,16 -59,38 -101,76 -153,111 -242,-128 -303,-267 -798,-354 -646,-112 -1232,136 -1628,616 -149,181 -315,525 -315,850z"/>
    <path class="fil1" d="M7830 2640l0 -66 304 0 0 1098 -516 0c13,-55 117,-230 157,-464 31,-178 55,-363 55,-568zm-345 -384l-26 397c-18,338 -88,756 -265,1019 -115,0 -145,3 -145,120l0 529c0,155 65,119 317,119 102,0 66,-280 66,-437l927 0 0 371c0,109 300,67 358,53 24,-106 24,-635 0,-741 -88,-21 -67,-14 -172,-14l0 -1337c0,-44 -24,-92 -67,-92 -140,0 -920,-15 -993,13z"/>
    <path class="fil1" d="M19983 2309l0 1602c0,130 194,92 384,92 96,0 146,-136 212,-264 56,-107 112,-216 172,-319 59,-102 107,-218 170,-319l161 -329c0,78 -12,91 -14,159l-12 967c0,127 136,105 251,105 79,0 133,-27 133,-105l0 -1536c0,-160 -70,-119 -384,-119 -60,0 -147,211 -195,295 -31,56 -56,107 -89,162l-177 326c-34,56 -56,105 -87,165l-122 249c-16,40 -16,53 -45,87 0,-127 13,-202 13,-331l0 -887c0,-95 -176,-66 -305,-66 -30,0 -66,35 -66,66z"/>
    <path class="fil1" d="M9339 3130c0,-775 834,-824 834,13 0,271 -131,556 -397,556 -318,0 -437,-300 -437,-569zm-424 -80c0,295 28,526 235,732 460,455 1178,235 1366,-230 137,-339 116,-833 -141,-1088 -226,-224 -362,-248 -679,-248 -421,0 -781,425 -781,834z"/>
    <path class="fil1" d="M13986 3116c0,-154 40,-299 103,-400 202,-323 731,-234 731,400 0,285 -121,583 -397,583 -155,0 -261,-55 -341,-189 -63,-106 -96,-230 -96,-394zm-424 -53c0,282 27,512 242,725 352,350 904,295 1192,7 359,-359 366,-1210 -190,-1499 -217,-112 -550,-109 -776,4 -144,72 -232,149 -322,287 -86,129 -146,306 -146,476z"/>
    <path class="fil1" d="M22221 2772c0,-319 299,-228 423,-225l0 464c-162,0 -423,32 -423,-239zm-80 384l0 27c-128,34 -225,182 -270,312 -196,568 -218,508 151,508 148,0 140,-130 210,-359 23,-73 43,-148 76,-215 70,-139 169,-114 336,-114l0 556c0,162 119,132 305,132 48,0 106,-36 106,-79l0 -1536c0,-183 -486,-159 -623,-159 -636,0 -700,488 -555,715 48,76 165,189 264,212z"/>
    <path class="fil1" d="M15257 3752c0,297 90,302 315,248 382,-90 430,-472 439,-831l27 -450c-1,-73 9,-92 13,-145l305 0 0 1297c0,162 118,132 304,132 49,0 106,-36 106,-79l0 -1589c0,-44 -23,-92 -66,-92l-967 0c-102,0 -68,297 -83,406 -23,172 -14,749 -97,896 -105,186 -296,102 -296,207z"/>
    <path class="fil1" d="M10610 3752c0,297 90,302 315,248 156,-37 292,-129 349,-286 123,-339 68,-551 111,-841l19 -299 305 0 0 1297c0,162 118,132 304,132 49,0 106,-36 106,-79l0 -1615c0,-31 -35,-66 -66,-66l-967 0c-104,0 -74,468 -94,646 -32,281 20,683 -219,774 -58,22 -163,21 -163,89z"/>
    <path class="fil1" d="M17124 2362l0 1509c0,95 37,132 132,132l874 0c151,0 119,-64 119,-278 0,-42 -48,-66 -93,-66l-622 0 0 -397c626,0 560,45 606,-176 18,-89 21,-168 -90,-168l-516 0 0 -344 609 0c69,0 81,-102 91,-161 11,-62 32,-170 -51,-170l-967 0c-74,0 -92,45 -92,119z"/>
    <path class="fil1" d="M18408 2309c0,330 -69,278 463,278l0 1311c0,137 154,105 305,105 64,0 106,-41 106,-105l0 -1311c319,0 435,44 465,-104 11,-57 66,-240 -42,-240l-1231 0c-31,0 -66,35 -66,66z"/>
    <path class="fil1" d="M12477 2349l0 1522c0,162 118,132 304,132 48,0 106,-36 106,-79l0 -1350 556 0c111,0 119,-185 119,-278 0,-15 -38,-53 -66,-53l-927 0c-63,0 -92,44 -92,106z"/>
    <path class="fil1" d="M11206 906l0 781c0,57 60,39 119,39 12,-47 86,-142 116,-188l312 -482c14,-27 14,-26 29,-51l33 -47c0,84 -14,111 -14,199l0 530c0,57 106,57 106,0l0 -808c0,-47 -25,-40 -79,-40 -47,0 -348,489 -395,559l-121 196 0 -636c2,-117 20,-119 -93,-119 -7,30 -13,31 -13,67z"/>
    <path class="fil1" d="M9286 879l0 847c115,0 96,25 219,-177 45,-73 81,-128 125,-193l252 -384 -14 715c0,57 106,57 106,0l0 -808c0,-47 -25,-40 -79,-40 -37,0 -58,53 -77,82l-439 673 0 -596c0,-95 23,-159 -53,-159 -31,0 -40,10 -40,40z"/>
    <path class="fil1" d="M10252 906l0 781c0,57 106,57 106,0l0 -384 464 0c0,128 -15,304 13,423 49,0 93,12 93,-39l0 -808c0,-51 -44,-40 -93,-40 -27,115 -13,251 -13,371l-464 0c0,-405 28,-371 -92,-371 -7,30 -14,31 -14,67z"/>
    <path class="fil1" d="M13218 1660c-99,0 -199,-24 -199,-172 0,-220 272,-225 437,-225 0,166 5,397 -238,397zm-225 -702c71,-1 309,-130 419,18 29,40 44,144 44,208 -144,0 -314,7 -420,82 -47,33 -75,61 -96,116 -21,53 -30,115 -14,173 49,189 231,233 398,158 78,-34 76,-55 132,-93 32,138 -21,117 106,106 0,-110 -13,-166 -13,-278 1,-151 22,-428 -56,-526 -98,-122 -302,-113 -429,-65 -106,41 -74,61 -71,101z"/>
    <path class="fil1" d="M8240 1687c0,83 220,71 281,-196 30,-126 37,-395 37,-559l344 0 0 794 93 0 0 -847c0,-64 -117,-40 -239,-40 -92,0 -185,0 -278,0 -43,186 10,551 -83,725 -56,106 -155,57 -155,123z"/>
    <path class="fil1" d="M7538 879l0 847 93 0 0 -410c62,41 76,56 129,109l258 232c66,68 57,69 182,69 -14,-52 -181,-191 -232,-230l-244 -233c29,-19 30,-26 56,-50l192 -165c128,-125 313,-209 136,-209 -38,0 -98,65 -123,90l-231 205c-31,31 -89,80 -123,102 0,-70 0,-141 0,-211 0,-95 28,-186 -53,-186 -30,0 -40,10 -40,40z"/>
    <path class="fil1" d="M12199 879l0 847 92 0 0 -410c64,43 74,56 129,109l258 232c66,68 57,69 183,69 -26,-95 -398,-345 -477,-463l248 -215c27,-23 33,-23 60,-47 151,-134 210,-162 76,-162 -45,0 -384,335 -477,397 0,-70 0,-141 0,-211 0,-95 28,-186 -53,-186 -30,0 -39,10 -39,40z"/>
   </g>
  </g>
 </g>
</svg>
