<?xml version="1.0" encoding="UTF-8"?>
<!DOCTYPE svg PUBLIC "-//W3C//DTD SVG 1.1//EN" "http://www.w3.org/Graphics/SVG/1.1/DTD/svg11.dtd">
<!-- Creator: CorelDRAW X8 -->
<svg xmlns="http://www.w3.org/2000/svg" xml:space="preserve" width="239.977mm" height="55.0332mm" version="1.1" style="shape-rendering:geometricPrecision; text-rendering:geometricPrecision; image-rendering:optimizeQuality; fill-rule:evenodd; clip-rule:evenodd"
viewBox="0 0 23998 5503"
 xmlns:xlink="http://www.w3.org/1999/xlink">
 <defs>
  <style type="text/css">
   <![CDATA[
    .fil0 {fill:#019040}
    .fil2 {fill:#1E1A16}
    .fil1 {fill:#EA7A16}
   ]]>
  </style>
 </defs>
 <g id="Слой_x0020_1">
  <metadata id="CorelCorpID_0Corel-Layer"/>
  <g id="_567999744">
   <path class="fil0" d="M4085 4090c138,2 1023,10 1090,-4 15,-457 1,-938 1,-1398 0,-232 0,-464 0,-697 0,-176 -47,-545 154,-553 127,-5 137,89 147,202 12,133 3,880 3,1048 0,233 0,465 0,697 0,226 -11,483 1,704 109,6 1032,9 1088,-3 15,-457 1,-938 1,-1398 0,-232 0,-464 0,-697 0,-172 -49,-542 154,-553 128,-8 144,83 149,197 5,113 1,235 1,349l0 1401c0,226 -12,483 1,704l1090 2c10,-128 2,-605 2,-769l0 -1544c0,-252 4,-491 -61,-716 -119,-408 -377,-651 -845,-699 -359,-36 -636,61 -867,291 -48,47 -163,205 -175,210 -235,-368 -548,-557 -1021,-495 -396,51 -735,308 -853,691 -73,238 -62,440 -62,710l0 1932c0,123 -7,268 2,388z"/>
   <path class="fil0" d="M12363 1498c529,-15 1271,-30 1293,683 11,342 -84,549 -292,693 -220,152 -521,145 -829,156 -7,110 -11,1018 4,1072 410,12 693,19 1050,-107 559,-197 977,-651 1128,-1234 82,-319 83,-729 -4,-1044 -67,-242 -200,-495 -369,-669 -237,-245 -466,-392 -826,-497 -355,-103 -676,-104 -1076,-104 -388,0 -787,-9 -1173,0l1 3643 1093 -1 0 -2591z"/>
   <path class="fil0" d="M9219 514c-101,51 -134,41 -266,135 -511,364 -408,983 -408,1572 0,264 -1,528 0,792 0,497 248,823 619,973 208,83 432,105 688,105 258,0 538,10 794,-2 4,-113 9,-991 -4,-1040 -194,-6 -397,-1 -592,-1 -215,0 -429,38 -445,-153 -20,-239 176,-219 374,-219 192,-1 406,9 597,-2l-3 -807c-137,-13 -810,37 -844,-56 -27,-12 -12,2 -30,-24 -31,-45 -41,-164 18,-224 54,-56 163,-67 261,-68 209,-1 465,15 668,-2l-1 -1045c-205,-6 -895,-8 -1110,6 -123,8 -206,38 -316,60z"/>
   <path class="fil1" d="M16304 4039c-7,-217 29,-446 60,-649l92 -604c42,-403 157,-853 34,-1263 -34,-117 -166,-503 -287,-257 -89,181 -133,668 -144,902 -12,246 -48,750 -80,965 -16,102 -27,213 -40,317 -29,217 -67,395 -99,597 -15,95 -36,203 -58,291 -51,201 -105,387 -10,588 97,206 318,-49 410,-133l186 -170c234,-205 341,-268 638,-408 96,-44 151,-58 265,-84 311,-70 295,-175 314,-382l16 -328c-34,9 -111,61 -158,82 -64,29 -98,47 -165,75 -193,81 -488,204 -667,289 -94,46 -253,169 -307,172z"/>
   <path class="fil1" d="M18245 2325c15,19 16,30 22,57 25,110 84,317 124,408 68,153 226,253 355,92 91,-114 107,-299 139,-463 11,-52 70,-348 50,-386 -11,-20 -48,-68 -72,-82 -54,64 -82,457 -224,492 -218,55 -203,-647 -223,-834 -16,-139 -14,-171 -93,-256 -25,-27 -61,-76 -119,-50 -100,44 -102,299 -109,413 -8,118 -2,239 -3,357 -2,179 -63,429 -96,613 -13,73 -34,234 -87,263 -48,26 -85,-17 -108,-51 -86,-130 -72,-157 -48,-256 13,-53 20,-90 28,-147 18,-115 23,-204 33,-322 6,-71 9,-303 -68,-305 -62,-1 -205,107 -247,172 -53,82 -47,667 -8,819 91,354 610,663 710,309 67,-235 33,-570 44,-843z"/>
   <path class="fil1" d="M19180 1235c-38,-27 -175,-232 -214,-279 -74,-92 -198,-225 -268,-30 -67,186 -84,458 -74,664 3,71 15,161 90,166 33,-61 38,-161 56,-236 19,-78 43,-144 85,-203 21,6 33,27 50,48l238 301c36,47 20,96 18,193 -1,34 -4,62 -5,95 -6,211 -67,3 -50,261 7,99 36,305 129,307 64,-43 59,-192 69,-286 12,-105 22,-232 29,-335 32,12 45,39 64,58l115 106c53,48 148,127 250,83 165,-71 154,-473 155,-646 0,-231 12,-201 -96,-329 -32,46 -47,388 -142,480 -93,90 -235,-85 -287,-141 -62,-67 -52,-51 -51,-200l0 -277c80,-52 114,-29 102,-293 -12,-253 -115,-253 -150,-195 -69,117 -87,633 -113,688z"/>
   <path class="fil2" d="M12280 4666l25 29c9,13 11,17 18,29 14,25 24,38 37,58l211 351c21,-1 134,5 146,-8 19,-32 5,-634 7,-733l-143 -1 -2 479c-16,-11 -252,-417 -296,-479l-146 1 0 740c45,-1 101,8 143,-7l0 -459z"/>
   <path class="fil2" d="M8229 4519c134,-5 296,-30 293,94 -4,112 -140,88 -291,92l-3 -116 1 -70zm294 278c27,-10 47,-11 77,-34 112,-86 89,-244 21,-313 -57,-59 -152,-59 -242,-59 -100,0 -202,-2 -301,1l2 740 148 0 4 -310c132,4 136,23 199,119l130 191 171 0c-7,-29 -155,-289 -238,-319l29 -16z"/>
   <path class="fil2" d="M5150 5134c173,-14 136,42 136,-165 0,-101 2,-204 0,-305 18,12 3,0 17,14l280 454 150 0 0 -740 -142 0 -3 482 -219 -363c-24,-41 -49,-79 -73,-119l-148 0 2 742z"/>
   <path class="fil2" d="M4286 5006c-16,-56 -5,-402 -5,-488 226,-4 305,6 304,245 0,253 -75,238 -299,243zm-157 127c239,-11 617,88 615,-370 -1,-158 -57,-288 -158,-340 -84,-44 -348,-42 -460,-30l3 740z"/>
   <polygon class="fil2" points="6320,4518 6711,4517 6711,4391 6169,4392 6170,5131 6727,5131 6727,5005 6320,5006 6320,4807 6683,4807 6684,4681 6321,4681 "/>
   <path class="fil2" d="M7282 4720l0 -198c100,-18 258,-16 256,99 -1,116 -157,118 -256,99zm-1 411c3,-70 1,-147 0,-218 -1,-86 -9,-52 148,-59 71,-4 127,-10 173,-44 145,-103 119,-361 -57,-409 -73,-20 -321,-10 -413,-10l-1 741 150 -1z"/>
   <path class="fil2" d="M14192 4859c-28,59 -10,68 -63,119 -62,58 -274,80 -274,-207 1,-278 175,-295 262,-242 57,35 39,52 75,101l143 -31c-60,-328 -649,-320 -638,172 11,486 578,469 638,135 -22,-16 -112,-44 -143,-47z"/>
   <path class="fil2" d="M10129 4857c-17,95 -84,185 -210,149 -96,-28 -125,-129 -126,-235 -2,-117 24,-216 110,-250 154,-62 201,67 227,110l144 -33c-62,-315 -637,-338 -636,173 0,192 96,334 260,367 201,40 342,-71 376,-232 -32,-24 -104,-41 -145,-49z"/>
   <path class="fil2" d="M10688 5131l518 0 0 -126 -362 0c-19,-69 -5,-495 -6,-603 -44,-15 -103,-7 -150,-6l0 735z"/>
   <polygon class="fil2" points="13150,5132 13305,5131 13305,4391 13151,4392 "/>
   <polygon class="fil2" points="11566,5132 11717,5131 11716,4391 11567,4391 "/>
  </g>
 </g>
</svg>
