<?xml version="1.0" encoding="UTF-8"?>
<!DOCTYPE svg PUBLIC "-//W3C//DTD SVG 1.1//EN" "http://www.w3.org/Graphics/SVG/1.1/DTD/svg11.dtd">
<!-- Creator: CorelDRAW X8 -->
<svg xmlns="http://www.w3.org/2000/svg" xml:space="preserve" width="240mm" height="55mm" version="1.1" style="shape-rendering:geometricPrecision; text-rendering:geometricPrecision; image-rendering:optimizeQuality; fill-rule:evenodd; clip-rule:evenodd"
viewBox="0 0 24000 5500"
 xmlns:xlink="http://www.w3.org/1999/xlink">
 <defs>
  <style type="text/css">
   <![CDATA[
    .fil2 {fill:#0154A3}
    .fil1 {fill:#62B22D}
    .fil3 {fill:#83CEF5}
    .fil0 {fill:#0154A3;fill-rule:nonzero}
   ]]>
  </style>
 </defs>
 <g id="Слой_x0020_1">
  <metadata id="CorelCorpID_0Corel-Layer"/>
  <g id="_546445712">
   <g id="_66977192">
    <path class="fil0" d="M8794 5137l0 -329 147 0c26,0 45,1 60,4 19,2 34,7 47,15 13,7 24,18 32,31 7,14 12,29 12,45 0,28 -11,52 -32,71 -21,19 -59,29 -114,29l-101 0 0 134 -51 0zm51 -173l101 0c33,0 57,-5 71,-15 14,-11 22,-26 22,-45 0,-13 -5,-25 -14,-35 -8,-10 -19,-16 -32,-19 -9,-2 -25,-3 -48,-3l-100 0 0 117zm601 173l0 -329 172 0c34,0 62,3 80,9 17,6 32,17 42,31 11,15 17,32 17,50 0,23 -10,43 -27,59 -18,16 -45,26 -82,30 13,6 23,11 31,17 14,11 28,26 42,43l68 90 -65 0 -51 -69c-16,-19 -28,-34 -37,-45 -11,-10 -19,-18 -27,-22 -8,-4 -16,-7 -23,-9 -6,-1 -15,-1 -29,-1l-60 0 0 146 -51 0zm51 -184l110 0c24,0 43,-2 56,-6 13,-4 24,-11 30,-20 7,-9 11,-18 11,-29 0,-16 -8,-28 -21,-38 -13,-10 -34,-15 -63,-15l-123 0 0 108zm636 184l0 -329 53 0 0 329 -53 0zm542 0l-151 -329 56 0 102 239c7,19 14,37 20,54 6,-18 13,-36 20,-54l106 -239 52 0 -152 329 -53 0zm457 0l148 -329 57 0 160 329 -60 0 -44 -100 -165 0 -41 100 -55 0zm112 -135l133 0 -41 -91c-13,-28 -21,-51 -28,-69 -5,22 -12,43 -22,64l-42 96zm640 135l0 -290 -129 0 0 -39 309 0 0 39 -128 0 0 290 -52 0zm522 0l0 -329 282 0 0 39 -231 0 0 101 215 0 0 38 -215 0 0 112 240 0 0 39 -291 0zm1397 -115l51 11c-11,35 -30,62 -58,81 -29,19 -62,28 -104,28 -41,0 -76,-7 -102,-21 -26,-15 -46,-36 -59,-63 -15,-27 -22,-57 -22,-88 0,-34 9,-64 24,-89 16,-26 38,-45 67,-58 28,-14 59,-20 93,-20 40,0 73,8 99,25 26,17 45,40 56,70l-51 11c-10,-24 -23,-42 -39,-53 -18,-11 -40,-16 -66,-16 -29,0 -54,6 -75,18 -20,12 -34,28 -41,49 -8,20 -13,41 -13,63 0,28 5,52 14,73 11,21 25,36 45,47 20,10 43,15 67,15 28,0 53,-7 72,-21 20,-14 35,-35 42,-62zm400 115l0 -329 52 0 0 290 191 0 0 39 -243 0zm602 0l0 -329 51 0 0 329 -51 0zm429 0l0 -329 53 0 204 258 0 -258 50 0 0 329 -53 0 -205 -258 0 258 -49 0zm689 0l0 -329 53 0 0 329 -53 0zm708 -115l52 11c-10,35 -29,62 -58,81 -28,19 -63,28 -103,28 -42,0 -76,-7 -102,-21 -26,-15 -46,-36 -61,-63 -13,-27 -20,-57 -20,-88 0,-34 8,-64 24,-89 15,-26 37,-45 65,-58 29,-14 61,-20 95,-20 39,0 71,8 99,25 26,17 45,40 54,70l-50 11c-9,-24 -22,-42 -39,-53 -18,-11 -39,-16 -65,-16 -30,0 -55,6 -75,18 -20,12 -34,28 -43,49 -7,20 -11,41 -11,63 0,28 4,52 14,73 9,21 25,36 45,47 20,10 43,15 66,15 29,0 53,-7 73,-21 20,-14 33,-35 40,-62zm387 9l48 -3c2,16 8,30 16,40 9,11 22,19 40,26 17,6 38,10 59,10 20,0 38,-3 52,-8 16,-5 26,-11 33,-20 9,-9 12,-18 12,-28 0,-10 -3,-19 -10,-27 -7,-8 -19,-14 -36,-19 -11,-4 -33,-9 -69,-16 -35,-8 -60,-15 -76,-21 -18,-8 -32,-18 -40,-31 -10,-12 -14,-25 -14,-40 0,-17 5,-33 16,-47 12,-14 27,-25 49,-33 21,-7 45,-11 72,-11 29,0 54,4 76,12 22,7 39,19 51,34 12,15 18,33 19,52l-50 3c-2,-20 -11,-36 -27,-47 -14,-10 -38,-16 -68,-16 -30,0 -53,5 -67,15 -14,9 -22,21 -22,35 0,11 5,21 15,29 10,7 36,15 78,23 42,8 71,15 87,21 22,9 39,20 50,34 10,13 16,29 16,46 0,18 -6,34 -18,49 -11,16 -29,28 -51,36 -22,9 -47,13 -76,13 -34,0 -64,-4 -88,-13 -23,-8 -42,-21 -55,-39 -15,-17 -22,-37 -22,-59z"/>
    <path class="fil1" d="M7838 2134c-30,-166 -52,-284 -259,-359 -166,-60 -386,-17 -495,105 -115,129 -127,301 -10,431 137,152 294,160 499,122 -59,148 -170,253 -153,493 12,156 108,312 230,426 186,174 663,444 897,484l6 -351c-230,-103 -428,-139 -628,-365 -181,-204 -222,-458 -88,-690 203,-350 744,-639 1146,-812 1125,-486 2175,-589 3413,-686 -104,-35 -1200,51 -1401,77 -974,130 -2193,407 -2955,973 -56,42 -146,123 -202,152z"/>
    <path class="fil2" d="M8721 1463l4 4c728,-288 1115,-410 1928,-533 2203,-335 4566,-66 6616,684l-134 -67c-1098,-508 -2032,-744 -3287,-862 -1177,-112 -2410,-57 -3554,211 -143,34 -294,84 -435,108l-21 14 26 -13c68,-70 120,-77 160,-184 109,-287 -215,-549 -548,-443 -196,62 -309,247 -255,418 65,206 239,260 468,267 -129,28 -596,212 -741,284 -72,35 -156,81 -227,112z"/>
    <path class="fil2" d="M9166 2024c67,-16 465,-6 567,-6 372,0 305,16 305,697 0,106 43,350 -108,386 -64,16 -471,6 -570,6 -373,0 -305,-15 -305,-697 0,-111 -45,-350 111,-386zm-395 978c17,204 211,340 448,342 755,7 1107,85 1107,-511 0,-122 7,-638 -4,-716 -27,-201 -209,-336 -447,-339 -169,-2 -693,-17 -822,24 -96,31 -182,95 -231,172 -65,104 -51,196 -52,309 0,150 -8,604 1,719z"/>
    <path class="fil1" d="M8974 3692c54,5 122,223 142,270 41,95 80,191 122,286 43,97 86,196 125,294 48,118 67,188 240,185 168,-4 191,-83 238,-196 39,-95 82,-190 121,-286 40,-96 80,-192 122,-287 20,-48 40,-96 60,-143 17,-37 26,-118 81,-124l1 1031 221 -1c11,-249 0,-511 2,-762 1,-76 12,-320 -6,-378 -31,-104 -180,-133 -291,-114 -136,25 -150,123 -192,218l-235 556c-31,74 -83,246 -133,260 -35,-32 -302,-690 -359,-823 -40,-95 -56,-192 -194,-211 -123,-18 -275,17 -291,137l2 1118 222 -1 2 -1029z"/>
    <path class="fil2" d="M15447 2376c54,-13 360,-5 438,-5 399,0 329,-7 329,471 0,342 31,296 -540,296 -108,0 -307,28 -329,-94 -15,-86 -2,-283 -2,-380 0,-110 -42,-253 104,-288zm769 -203c-193,-31 -507,-17 -713,-15 -197,1 -380,93 -413,268l-5 610c5,167 162,299 359,312 122,8 622,12 725,-6 215,-39 308,-181 308,-356 -1,-244 14,-1050 -5,-1224l-250 -1c-16,46 -10,347 -6,412z"/>
    <path class="fil2" d="M13014 3045c-15,-88 -2,-275 -2,-373 0,-97 -39,-265 96,-298 61,-15 351,-6 436,-6 113,0 313,-31 339,94 17,78 4,280 4,371 0,352 25,307 -534,307 -108,0 -317,29 -339,-95zm75 -886c-189,22 -329,151 -336,311 -4,96 1,199 1,295 0,92 -7,205 1,294 15,155 174,280 355,291l703 -3c187,-23 326,-151 332,-311l-2 -590c-16,-156 -178,-277 -359,-289l-695 2z"/>
    <path class="fil1" d="M12050 3675c99,-7 226,-1 327,-1 338,0 457,-44 455,167l0 550c0,84 -29,147 -143,150 -174,5 -472,12 -641,-2l2 -864zm-223 1052c109,4 916,5 964,-11 330,-112 260,-290 260,-613 0,-221 72,-538 -268,-604 -95,-19 -814,-13 -957,-10l1 1238z"/>
    <path class="fil2" d="M7257 4495c334,191 921,414 1294,453l-5 -353c-313,-48 -951,-288 -1220,-438 -186,-105 -316,-211 -434,-371 -56,-75 -99,-181 -114,-269 -31,-179 16,-249 15,-325 -49,40 -100,177 -119,247 -28,104 -36,209 -15,314 57,290 311,579 598,742z"/>
    <path class="fil1" d="M10845 4004c-10,-45 -15,-229 4,-265 42,-79 151,-67 241,-67 192,0 447,12 632,-3l-2 -180c-141,-9 -314,-2 -459,-2 -129,0 -312,-15 -429,26 -284,97 -215,362 -215,599 0,204 -67,502 222,593 116,37 304,23 432,23 140,0 312,7 450,-2l0 -180 -651 -3c-91,1 -199,0 -225,-79 -13,-35 -9,-229 0,-271l876 -1 -4 -186 -872 -2z"/>
    <path class="fil1" d="M15486 3709c29,32 288,548 288,576l-577 1c1,-26 261,-542 289,-577zm-515 1010c36,-60 90,-207 132,-249l771 1c35,38 99,193 131,254l240 -8c-3,-48 -422,-838 -503,-992 -52,-103 -98,-260 -258,-258 -155,3 -202,161 -255,261l-493 948c-4,7 -10,17 -11,24 -3,15 -1,6 3,15 44,9 198,12 243,4z"/>
    <path class="fil2" d="M10991 2738l-593 608 310 4c55,-20 355,-372 442,-441l431 440 321 0c-24,-37 -245,-255 -295,-308 -57,-62 -266,-254 -292,-306l553 -575 -305 -2 -410 413c-78,-50 -370,-408 -425,-413l-288 0 551 580z"/>
    <path class="fil3" d="M8551 4050c-468,-39 -1212,-406 -1341,-862 -77,-275 30,-396 75,-570 -137,99 -292,415 -311,572 -28,223 58,457 245,617 298,253 925,491 1328,545l4 -302z"/>
    <path class="fil1" d="M14655 4545c-88,-12 -251,-3 -348,-2 -603,0 -534,65 -534,-440 0,-323 -52,-432 192,-432 119,1 612,6 690,-3l-1 -178c-125,-13 -325,-3 -457,-3 -130,0 -314,-15 -430,25 -284,98 -216,392 -216,600 0,210 -68,499 223,593 118,37 729,31 881,21l0 -181z"/>
    <path class="fil2" d="M12317 2163c-32,-246 50,-184 257,-206l0 -188c-139,-23 -383,9 -473,112 -101,116 -64,313 -64,453 0,336 -7,678 0,1016l277 -3 3 -978 276 0 -2 -206 -274 0z"/>
    <path class="fil1" d="M16252 3490c-20,145 -3,390 -3,545 0,410 -90,693 462,693 204,0 439,8 642,-2l0 -183c-152,-9 -737,15 -800,-11 -88,-35 -81,-76 -81,-149 1,-137 11,-819 -5,-895l-215 2z"/>
    <path class="fil2" d="M14913 2373l2 -216 -237 7c-109,10 -203,69 -265,140 -80,90 -66,203 -66,309 0,239 -12,500 1,737l260 -1c7,-251 -1,-545 -3,-804 0,-199 121,-179 308,-172z"/>
    <polygon class="fil1" points="13192,4728 13411,4727 13408,3489 13189,3488 "/>
    <polygon class="fil3" points="9859,1008 9864,1009 9838,1022 "/>
    <polygon class="fil3" points="6936,4252 6915,4231 "/>
   </g>
  </g>
 </g>
</svg>
