<?xml version="1.0" encoding="UTF-8"?>
<!DOCTYPE svg PUBLIC "-//W3C//DTD SVG 1.1//EN" "http://www.w3.org/Graphics/SVG/1.1/DTD/svg11.dtd">
<!-- Creator: CorelDRAW X8 -->
<svg xmlns="http://www.w3.org/2000/svg" xml:space="preserve" width="240mm" height="55mm" version="1.1" style="shape-rendering:geometricPrecision; text-rendering:geometricPrecision; image-rendering:optimizeQuality; fill-rule:evenodd; clip-rule:evenodd"
viewBox="0 0 24000 5500"
 xmlns:xlink="http://www.w3.org/1999/xlink">
 <defs>
  <style type="text/css">
   <![CDATA[
    .fil1 {fill:#0FB8B3;fill-rule:nonzero}
    .fil2 {fill:#8C8885;fill-rule:nonzero}
    .fil0 {fill:#FE8E22;fill-rule:nonzero}
   ]]>
  </style>
 </defs>
 <g id="Слой_x0020_1">
  <metadata id="CorelCorpID_0Corel-Layer"/>
  <g id="_536646328">
   <g id="_561160640">
    <path class="fil0" d="M400 1119l880 0c155,0 287,6 399,19 111,13 219,43 319,92 102,48 191,116 266,201 77,85 136,184 179,294 45,110 66,245 66,403 0,301 -89,547 -267,741 -180,193 -486,290 -923,290l-919 0 0 -2040zm338 1798l547 0c110,0 210,-5 298,-17 87,-11 176,-41 266,-90 90,-50 164,-130 224,-242 59,-112 88,-261 88,-446 0,-101 -12,-196 -34,-285 -22,-90 -64,-169 -126,-243 -60,-72 -130,-126 -209,-159 -79,-35 -155,-55 -231,-62 -75,-8 -171,-12 -288,-12l-535 0 0 1556zm3697 242l-315 0 0 -898c0,-151 -33,-255 -101,-312 -68,-56 -162,-85 -283,-85 -93,0 -180,19 -263,55 -84,37 -143,87 -177,154 -35,65 -52,158 -52,279l0 807 -314 0 0 -1476 282 0 0 208 7 0c67,-80 147,-140 245,-181 96,-40 209,-61 336,-61 98,0 194,15 289,43 96,27 170,69 224,125 54,55 88,115 101,178 15,62 21,148 21,256l0 908zm1588 -1285c117,-149 293,-225 527,-225 242,0 434,70 575,211 140,140 210,323 210,549 0,241 -78,431 -233,572 -155,142 -347,212 -573,212 -198,0 -357,-63 -477,-188l-8 0 7 1156 -313 0 -8 -2478 286 0 0 191 7 0zm486 1114c146,0 267,-48 362,-146 96,-96 143,-241 143,-433 0,-181 -45,-320 -138,-417 -92,-97 -210,-146 -354,-146 -148,0 -270,54 -365,162 -97,109 -144,250 -144,422 0,183 45,321 136,416 92,95 213,142 360,142zm2195 -1259l-107 231c-78,-36 -154,-55 -228,-55 -117,0 -206,42 -266,126 -60,84 -92,202 -92,353l0 775 -312 0 0 -1476 285 0 0 222 7 0c100,-170 231,-256 391,-256 107,0 215,27 322,80zm944 -80c250,0 456,65 620,195 164,130 247,315 247,554 0,290 -89,496 -266,616 -179,120 -378,179 -601,179 -234,0 -435,-61 -607,-184 -173,-123 -258,-319 -258,-587 0,-260 83,-454 249,-581 165,-128 371,-192 616,-192zm0 1339c179,0 314,-54 407,-158 93,-107 140,-246 140,-418 0,-185 -53,-324 -158,-417 -105,-94 -235,-141 -389,-141 -160,0 -289,48 -392,142 -102,95 -153,237 -153,426 0,187 52,328 155,423 105,96 235,143 390,143zm-4422 136c0,8 -2,14 -7,20 -4,4 -11,9 -23,13 -10,3 -24,6 -43,7 -19,2 -43,3 -72,3 -28,0 -51,-1 -70,-3 -19,-1 -33,-4 -43,-7 -12,-4 -20,-9 -24,-13 -4,-6 -7,-12 -7,-20l0 -1252c0,-8 3,-14 7,-19 4,-5 12,-10 24,-13 10,-5 24,-7 43,-9 19,-2 42,-3 70,-3 29,0 53,1 72,3 19,2 33,4 43,9 12,3 19,8 23,13 5,5 7,11 7,19l0 1252zm33 -1675c0,54 -14,91 -39,110 -26,20 -72,30 -142,30 -67,0 -114,-9 -138,-29 -25,-19 -38,-55 -38,-108 0,-54 14,-91 39,-111 25,-18 72,-29 141,-29 68,0 114,10 139,29 25,19 38,55 38,108z"/>
    <path class="fil1" d="M10861 1680l449 0 0 202c161,-155 352,-233 575,-233 118,0 222,19 308,58 88,39 159,98 214,177 82,-79 169,-138 263,-177 94,-39 195,-58 302,-58 135,0 249,22 343,65 95,45 165,109 211,195 34,63 50,165 50,306l0 944 -487 0 0 -844c0,-147 -17,-241 -51,-284 -46,-55 -115,-83 -209,-83 -69,0 -133,17 -194,50 -60,33 -104,82 -131,146 -27,65 -39,167 -39,306l0 709 -489 0 0 -810c0,-143 -9,-236 -26,-277 -17,-42 -44,-73 -80,-94 -37,-20 -86,-30 -150,-30 -74,0 -143,16 -203,48 -60,33 -102,80 -129,141 -26,61 -39,162 -39,304l0 718 -488 0 0 -1479zm4274 1012l488 65c-62,143 -162,252 -296,327 -136,74 -305,112 -508,112 -321,0 -559,-83 -713,-252 -122,-135 -183,-305 -183,-511 0,-244 80,-437 240,-576 160,-139 362,-208 607,-208 274,0 491,73 650,218 159,145 235,368 228,668l-1222 0c3,116 42,206 118,271 74,64 169,96 280,96 77,0 141,-16 192,-49 53,-34 92,-87 119,-161zm28 -397c-3,-113 -39,-200 -109,-259 -70,-59 -154,-88 -253,-88 -107,0 -195,31 -265,94 -69,62 -103,147 -102,253l729 0zm2581 864l-453 0 0 -217c-75,85 -164,148 -268,190 -102,43 -206,64 -310,64 -214,0 -396,-68 -548,-206 -152,-136 -228,-328 -228,-573 0,-251 74,-442 221,-572 149,-131 335,-196 561,-196 207,0 386,68 537,206l0 -736 488 0 0 2040zm-1304 -768c0,158 27,273 81,343 79,103 189,155 330,155 112,0 208,-40 287,-116 79,-77 118,-192 118,-344 0,-171 -38,-293 -115,-369 -76,-74 -174,-112 -293,-112 -116,0 -213,37 -291,111 -79,74 -117,185 -117,332zm4271 -272l-481 69c-16,-77 -53,-135 -110,-173 -58,-39 -133,-58 -224,-58 -122,0 -219,33 -292,100 -72,68 -109,180 -109,339 0,176 38,299 111,373 74,72 172,108 297,108 92,0 168,-21 226,-64 60,-42 102,-115 126,-218l481 65c-49,177 -146,311 -287,401 -142,90 -331,135 -569,135 -270,0 -485,-68 -646,-205 -160,-136 -241,-325 -241,-567 0,-245 81,-435 243,-571 160,-137 379,-204 653,-204 225,0 404,38 537,116 132,78 227,195 285,354zm735 17l-441 -62c49,-145 135,-252 257,-321 122,-70 303,-104 543,-104 218,0 380,20 488,61 106,42 181,94 225,158 43,64 65,180 65,350l-7 455c0,130 8,226 22,288 16,61 46,128 89,198l-485 0c-13,-26 -29,-64 -48,-114 -7,-24 -13,-38 -16,-45 -83,65 -172,114 -268,147 -95,33 -195,49 -303,49 -190,0 -340,-41 -449,-124 -109,-82 -164,-186 -164,-313 0,-83 26,-157 75,-223 50,-66 119,-115 210,-151 90,-34 219,-64 388,-91 229,-34 387,-66 474,-95l0 -39c0,-77 -22,-131 -69,-164 -47,-32 -135,-48 -263,-48 -88,0 -155,14 -204,42 -50,28 -89,76 -119,146zm655 317c-62,16 -161,36 -297,59 -136,24 -225,46 -266,68 -63,36 -95,82 -95,138 0,55 26,101 76,142 51,40 116,60 195,60 88,0 172,-24 253,-70 58,-36 97,-78 116,-129 12,-33 18,-97 18,-191l0 -77zm964 706l0 -2040 488 0 0 2040 -488 0zm-4437 -46c0,8 -4,16 -11,23 -7,8 -18,13 -36,18 -17,4 -39,8 -66,10 -28,2 -64,3 -107,3 -42,0 -78,-1 -106,-3 -28,-2 -49,-6 -67,-10 -17,-5 -29,-10 -35,-18 -7,-7 -11,-15 -11,-23l0 -1240c0,-10 4,-18 11,-25 6,-7 18,-14 35,-18 18,-5 39,-9 67,-12 28,-2 64,-4 106,-4 43,0 79,2 107,4 27,3 49,7 66,12 18,4 29,11 36,18 7,7 11,15 11,25l0 1240zm35 -1665c0,71 -18,119 -54,146 -36,27 -103,41 -201,41 -98,0 -166,-13 -199,-40 -35,-26 -52,-72 -52,-140 0,-71 18,-120 53,-148 35,-27 103,-40 202,-40 97,0 164,13 199,39 35,27 52,74 52,142z"/>
    <path class="fil2" d="M6795 3889c0,-100 44,-175 132,-222 75,-41 165,-61 271,-61 119,0 215,24 290,73 75,49 113,117 113,203 0,69 -16,124 -49,165 -35,39 -82,70 -146,93 -64,22 -133,33 -208,33 -120,0 -217,-25 -292,-73 -74,-49 -111,-120 -111,-211zm149 0c0,70 23,123 72,157 49,34 109,51 182,51 73,0 133,-17 182,-51 47,-36 71,-88 71,-160 0,-66 -24,-118 -72,-152 -48,-34 -109,-52 -181,-52 -73,0 -133,18 -182,52 -49,34 -72,86 -72,155zm828 273l0 -544 131 0 0 77c63,-59 154,-89 273,-89 53,0 100,6 143,17 44,13 77,28 98,47 21,18 37,41 45,68 6,17 8,47 8,89l0 335 -146 0 0 -331c0,-38 -5,-66 -16,-85 -12,-18 -32,-33 -60,-44 -29,-11 -64,-17 -102,-17 -62,0 -116,13 -160,38 -46,24 -68,72 -68,141l0 298 -146 0zm1485 -200l142 13c-15,61 -55,110 -119,145 -65,35 -144,53 -238,53 -117,0 -212,-25 -283,-73 -72,-48 -107,-119 -107,-209 0,-59 15,-109 46,-153 30,-44 77,-78 140,-99 63,-22 132,-33 205,-33 93,0 170,15 229,45 60,29 98,72 115,126l-141 14c-14,-36 -37,-63 -72,-82 -35,-19 -76,-28 -125,-28 -73,0 -133,17 -179,50 -47,33 -69,86 -69,158 0,73 22,126 66,159 45,33 103,49 174,49 57,0 105,-11 143,-33 38,-21 63,-56 73,-102zm213 -73c0,-100 43,-175 132,-222 74,-41 165,-61 271,-61 118,0 215,24 290,73 75,49 113,117 113,203 0,69 -17,124 -50,165 -33,39 -82,70 -145,93 -63,22 -133,33 -208,33 -120,0 -218,-25 -292,-73 -75,-49 -111,-120 -111,-211zm149 0c0,70 24,123 72,157 48,34 109,51 182,51 72,0 133,-17 181,-51 49,-36 72,-88 72,-160 0,-66 -24,-118 -72,-152 -49,-34 -109,-52 -181,-52 -73,0 -134,18 -182,52 -48,34 -72,86 -72,155zm1384 273l0 -70c-55,54 -135,81 -241,81 -69,0 -131,-12 -189,-36 -57,-24 -102,-57 -134,-100 -31,-42 -46,-92 -46,-147 0,-55 13,-103 42,-148 29,-43 72,-77 128,-101 57,-23 122,-35 192,-35 53,0 98,7 139,20 40,15 73,32 98,55l0 -270 146 0 0 751 -135 0zm-461 -272c0,70 23,122 69,156 47,34 102,51 165,51 64,0 118,-16 163,-49 45,-32 67,-83 67,-150 0,-74 -23,-129 -69,-164 -45,-34 -101,-52 -167,-52 -66,0 -120,17 -163,50 -44,34 -65,86 -65,158zm1415 96l151 12c-24,55 -68,98 -132,128 -64,32 -146,47 -245,47 -127,0 -226,-25 -300,-73 -73,-49 -109,-117 -109,-207 0,-91 37,-161 110,-212 75,-50 171,-75 290,-75 115,0 209,24 281,74 74,50 110,119 110,208 0,5 0,14 -1,25l-641 0c5,59 32,106 80,137 48,32 107,47 180,47 53,0 98,-9 136,-26 38,-18 68,-47 90,-85zm-478 -148l480 0c-7,-46 -25,-80 -55,-103 -47,-36 -107,-54 -181,-54 -67,0 -123,15 -168,43 -46,29 -71,66 -76,114zm812 324l0 -544 131 0 0 83c33,-39 64,-64 93,-77 28,-12 59,-18 93,-18 50,0 99,10 150,30l-52 84c-35,-13 -70,-19 -106,-19 -31,0 -60,6 -85,18 -25,13 -44,29 -54,51 -17,32 -25,69 -25,107l0 285 -145 0zm554 0l0 -544 131 0 0 77c27,-27 63,-49 107,-65 45,-16 96,-24 153,-24 64,0 116,8 157,24 40,18 69,41 86,71 68,-63 157,-95 266,-95 86,0 152,15 198,45 47,29 69,76 69,138l0 373 -146 0 0 -343c0,-36 -4,-63 -14,-80 -9,-15 -26,-29 -51,-38 -26,-11 -55,-16 -88,-16 -61,0 -111,14 -151,39 -41,25 -60,66 -60,122l0 316 -146 0 0 -353c0,-42 -13,-72 -35,-93 -24,-20 -64,-31 -117,-31 -42,0 -79,8 -114,21 -36,13 -60,33 -76,60 -16,26 -23,64 -23,113l0 283 -146 0zm1944 -69c-54,29 -106,50 -156,61 -51,13 -104,19 -162,19 -94,0 -167,-14 -218,-43 -51,-29 -76,-67 -76,-112 0,-27 9,-51 29,-73 19,-23 45,-39 75,-53 32,-13 66,-23 105,-30 29,-5 72,-9 130,-14 118,-8 205,-19 261,-31 0,-13 1,-21 1,-24 0,-37 -15,-64 -42,-80 -37,-20 -93,-31 -166,-31 -70,0 -121,8 -153,23 -33,15 -57,42 -72,81l-143 -13c12,-38 34,-69 64,-93 30,-24 73,-42 130,-55 56,-12 121,-19 195,-19 74,0 134,6 180,16 46,11 79,25 101,42 22,16 37,37 46,63 5,15 7,43 7,85l0 122c0,85 3,139 9,161 6,23 18,45 35,67l-152 0c-14,-20 -24,-43 -28,-69zm-11 -204c-54,14 -133,25 -239,34 -61,6 -103,12 -128,19 -25,6 -44,17 -58,29 -13,14 -21,28 -21,44 0,24 16,45 45,61 30,16 72,25 129,25 56,0 107,-9 151,-24 43,-15 75,-36 96,-63 15,-21 24,-51 24,-92l1 -33zm689 190l19 82c-41,5 -77,8 -110,8 -52,0 -94,-5 -123,-17 -29,-10 -50,-23 -61,-41 -12,-18 -18,-54 -18,-109l0 -314 -107 0 0 -70 107 0 0 -135 147 -56 0 191 146 0 0 70 -146 0 0 319c0,26 2,44 7,51 5,7 13,14 25,18 11,5 28,7 49,7 17,0 38,-1 65,-4zm89 -190c0,-100 44,-175 132,-222 75,-41 165,-61 272,-61 118,0 214,24 290,73 74,49 111,117 111,203 0,69 -16,124 -49,165 -33,39 -81,70 -145,93 -63,22 -133,33 -207,33 -122,0 -219,-25 -294,-73 -73,-49 -110,-120 -110,-211zm149 0c0,70 24,123 72,157 49,34 109,51 183,51 72,0 132,-17 180,-51 48,-36 72,-88 72,-160 0,-66 -24,-118 -72,-152 -49,-34 -109,-52 -180,-52 -74,0 -134,18 -183,52 -48,34 -72,86 -72,155zm824 273l0 -751 146 0 0 751 -146 0zm318 -273c0,-100 44,-175 133,-222 73,-41 164,-61 270,-61 119,0 215,24 291,73 75,49 112,117 112,203 0,69 -17,124 -50,165 -33,39 -82,70 -145,93 -63,22 -132,33 -208,33 -120,0 -217,-25 -292,-73 -75,-49 -111,-120 -111,-211zm149 0c0,70 24,123 73,157 47,34 109,51 181,51 73,0 134,-17 181,-51 49,-36 73,-88 73,-160 0,-66 -25,-118 -73,-152 -48,-34 -108,-52 -181,-52 -72,0 -134,18 -181,52 -49,34 -73,86 -73,155zm801 317l142 13c5,28 22,47 48,61 38,16 86,25 150,25 67,0 119,-9 156,-25 36,-18 61,-42 75,-72 7,-18 11,-58 10,-118 -63,48 -143,72 -238,72 -118,0 -211,-27 -275,-81 -65,-54 -97,-119 -97,-194 0,-53 14,-100 44,-144 29,-43 73,-77 129,-101 57,-24 123,-36 199,-36 101,0 185,26 251,78l0 -66 135 0 0 469c0,85 -13,145 -41,180 -27,36 -71,64 -130,83 -59,21 -131,31 -217,31 -103,0 -186,-14 -249,-43 -63,-29 -94,-73 -92,-132zm120 -326c0,71 23,123 67,155 45,33 102,50 169,50 66,0 123,-17 169,-49 45,-33 67,-84 67,-153 0,-66 -22,-116 -69,-150 -48,-34 -104,-51 -170,-51 -64,0 -119,17 -165,50 -45,33 -68,83 -68,148zm823 491l-16 -86c32,5 60,8 83,8 33,0 59,-3 78,-10 20,-6 36,-17 48,-28 9,-9 24,-33 45,-69 3,-6 7,-13 13,-23l-327 -545 156 0 179 314c24,39 45,81 64,125 16,-41 36,-82 60,-122l183 -317 146 0 -325 553c-35,59 -63,100 -83,122 -26,31 -56,53 -89,68 -34,13 -74,20 -120,20 -28,0 -60,-3 -95,-10zm1860 -409l142 13c-15,61 -55,110 -120,145 -64,35 -144,53 -237,53 -118,0 -212,-25 -284,-73 -71,-48 -107,-119 -107,-209 0,-59 15,-109 46,-153 31,-44 78,-78 141,-99 62,-22 131,-33 205,-33 93,0 170,15 229,45 59,29 97,72 114,126l-141 14c-13,-36 -37,-63 -71,-82 -34,-19 -77,-28 -126,-28 -73,0 -132,17 -179,50 -45,33 -68,86 -68,158 0,73 22,126 66,159 45,33 103,49 173,49 58,0 106,-11 144,-33 38,-21 62,-56 73,-102zm264 200l0 -751 146 0 0 751 -146 0zm371 -647l0 -104 147 0 0 104 -147 0zm0 647l0 -544 147 0 0 544 -147 0zm369 0l0 -544 131 0 0 77c63,-59 154,-89 273,-89 53,0 101,6 143,17 44,13 77,28 98,47 21,18 37,41 45,68 6,17 8,47 8,89l0 335 -146 0 0 -331c0,-38 -5,-66 -16,-85 -12,-18 -31,-33 -60,-44 -29,-11 -64,-17 -102,-17 -62,0 -116,13 -160,38 -45,24 -68,72 -68,141l0 298 -146 0zm923 -647l0 -104 146 0 0 104 -146 0zm0 647l0 -544 146 0 0 544 -146 0zm931 -200l142 13c-16,61 -55,110 -119,145 -65,35 -144,53 -238,53 -117,0 -213,-25 -284,-73 -72,-48 -107,-119 -107,-209 0,-59 16,-109 46,-153 31,-44 77,-78 141,-99 63,-22 131,-33 205,-33 93,0 170,15 229,45 60,29 97,72 115,126l-142 14c-14,-36 -38,-63 -72,-82 -34,-19 -75,-28 -124,-28 -74,0 -134,17 -179,50 -47,33 -70,86 -70,158 0,73 22,126 67,159 44,33 102,49 174,49 57,0 104,-11 143,-33 38,-21 63,-56 73,-102z"/>
   </g>
  </g>
 </g>
</svg>
