<?xml version="1.0" encoding="UTF-8"?>
<!DOCTYPE svg PUBLIC "-//W3C//DTD SVG 1.1//EN" "http://www.w3.org/Graphics/SVG/1.1/DTD/svg11.dtd">
<!-- Creator: CorelDRAW X8 -->
<svg xmlns="http://www.w3.org/2000/svg" xml:space="preserve" width="240mm" height="55mm" version="1.1" style="shape-rendering:geometricPrecision; text-rendering:geometricPrecision; image-rendering:optimizeQuality; fill-rule:evenodd; clip-rule:evenodd"
viewBox="0 0 24000 5500"
 xmlns:xlink="http://www.w3.org/1999/xlink">
 <defs>
  <style type="text/css">
   <![CDATA[
    .fil0 {fill:#824E98}
   ]]>
  </style>
 </defs>
 <g id="Слой_x0020_1">
  <metadata id="CorelCorpID_0Corel-Layer"/>
  <path class="fil0" d="M9074 2595c25,-195 232,-774 314,-923 41,-72 110,-210 178,-238 56,-24 143,-56 212,-4 69,52 48,131 48,217 0,144 7,1059 -4,1097 -45,149 -467,86 -599,86 -178,-1 -170,-77 -149,-235zm-1990 409c34,72 240,58 330,58l998 1c89,-1 114,-41 153,-41 48,47 17,62 14,115 -4,104 234,88 262,-72l1097 -10c83,-13 141,25 179,37 67,20 64,18 99,57 15,18 25,27 44,42 23,18 66,62 88,68 34,11 94,2 124,-17 52,-32 70,-243 -25,-367 -42,-52 -104,-8 -103,-204 2,-210 -12,-1135 12,-1238 14,-63 55,-53 81,-76 36,-32 24,-92 24,-135 -113,-75 -110,-53 -296,-53l-720 0c-124,0 -232,-12 -320,39 -70,163 47,146 89,268 1,108 -392,936 -457,1236 -22,103 -16,96 -105,138 0,-135 88,-188 -85,-275 -29,-3 -95,28 -135,88l-118 105c-179,92 -425,96 -593,-13 -18,-66 -25,-508 11,-581l285 10c60,0 141,-4 189,34 4,4 17,16 23,21 54,50 139,-3 157,-57 12,-40 56,-312 -66,-354 -70,-23 -120,29 -196,69 -58,31 -211,-3 -343,19 -111,19 -65,-153 -70,-367 -2,-84 -29,-94 69,-123 236,-68 406,-38 579,121 84,77 155,75 212,-36 34,-66 -7,-307 -80,-328 -117,-34 -699,-14 -865,-14 -115,0 -327,-13 -431,2 -190,28 -105,173 -94,184l53 36c90,69 65,1307 39,1397 -24,82 -169,69 -109,216z"/>
  <path class="fil0" d="M20531 1930l1 -433c10,-74 126,-119 195,-100 457,122 347,537 -33,675 -179,65 -162,-4 -163,-142zm-635 -708c0,251 104,38 106,370 1,132 12,1160 -3,1212 -21,68 -103,20 -103,156 0,113 155,102 286,102 121,0 487,37 513,-78 26,-117 -122,-146 -131,-154 -43,-37 -43,-356 -43,-445 249,-165 924,-8 1018,-590 11,-70 -5,-148 8,-203 79,1 61,42 144,7 45,-20 101,-92 143,-132 49,-47 176,-45 252,-45 5,27 -17,0 20,30l1 1188c0,212 6,105 -31,204 -86,23 -96,65 -96,155 65,50 119,63 200,63 102,0 519,27 556,-59 53,-126 -72,-152 -96,-186 -39,-54 -25,-324 -25,-400 0,-318 0,-635 0,-952 51,-31 61,-50 126,-41 194,30 134,40 231,118l33 33c48,55 79,37 170,25l1 -389c-88,-2 -14,-44 -201,-42 -377,3 -921,-15 -1260,-1 -254,11 -100,242 -232,276 -336,-240 -180,-275 -675,-275l-721 0c-101,-1 -111,0 -191,53z"/>
  <path class="fil0" d="M4877 2851c-4,1 -9,-3 -11,1 -4,8 -48,-19 -76,50 -66,161 119,160 255,160 92,0 189,0 267,-21 96,-25 68,-155 15,-184 -60,-34 -114,15 -113,-174 1,-172 -32,-665 -7,-794 11,-56 3,-33 29,-44l25 40c1,3 2,6 3,9l4 16c23,88 328,827 384,873 36,30 246,92 297,-25l418 -955 1 900c-1,35 0,25 -8,57 -24,97 -68,84 -94,103l-28 38c-51,128 60,149 152,160 94,11 434,4 515,-12 89,-17 93,-79 69,-148 -33,-99 -101,2 -99,-165l5 -1279c0,-28 36,-54 61,-64 81,-33 28,-20 82,-55 0,-24 2,-62 0,-84 -3,-23 0,-11 -10,-33 -3,-8 -3,-7 -7,-14 -45,-70 -416,-38 -512,-39 -137,0 -183,47 -236,156 -84,171 -194,484 -255,665 -18,53 -37,69 -54,136 -13,45 -22,44 -27,49 -20,-6 -146,-299 -164,-354 -29,-92 -72,-203 -95,-285 -6,-23 -111,-269 -116,-276 -38,-50 -25,-85 -174,-91 -112,-4 -427,-11 -523,7 -80,14 -137,39 -108,138 19,67 203,87 207,186 1,22 -10,39 -10,124l2 1047c20,159 -35,102 -64,181z"/>
  <path class="fil0" d="M16353 2819c-54,27 -170,87 -129,177 58,101 432,66 563,66 79,1 212,-12 212,-106 -1,-109 -113,-97 -135,-194 -14,-66 -3,-1122 -3,-1287 92,-60 118,-74 243,-74 65,1 448,-30 452,105 0,20 -3,2 -2,29 1,14 5,8 3,34 -2,50 -9,92 -9,150l0 814c0,84 26,221 -18,279 -35,45 -1,4 -43,30 -94,58 -67,103 -66,167 102,67 235,53 370,53 161,0 442,38 373,-160 -14,-41 -30,-41 -66,-62 -63,-37 -42,-145 -42,-212l0 -1005c0,-52 -9,-186 30,-223l39 -24c13,-10 25,-18 33,-31 22,-32 14,-75 14,-113 -65,-98 -299,-63 -412,-63 -187,0 -1353,-12 -1433,6 -72,16 -88,23 -102,66 -38,114 71,120 115,173 43,50 23,810 23,929l1 361c0,51 -10,72 -11,115z"/>
  <path class="fil0" d="M12544 2778c-24,113 -96,38 -114,148 -10,63 1,100 60,117 94,27 586,37 665,-16 48,-32 39,-81 17,-128 -9,-21 -20,-33 -38,-43l-60 -37c0,-67 -11,-105 -11,-180 0,-86 -16,-295 40,-341 119,-100 106,-93 184,-11 115,122 300,385 347,553 -4,0 -44,-16 -75,52 -15,35 -9,78 -9,117 110,72 466,59 624,53 77,-2 114,-20 169,-63 0,-66 -16,-123 -75,-147 -96,-40 -681,-869 -665,-932 25,-39 38,-27 65,-62l307 -326c22,-29 19,-48 59,-71 90,-51 194,-95 179,-193 -7,-40 -12,-62 -49,-78 -74,-31 -457,-37 -528,0 -23,11 -20,16 -44,32 0,163 26,92 95,200l-591 594 -37 -17c-3,-13 1,-483 6,-520 19,-124 81,-80 114,-152 16,-35 13,-76 -6,-109 -15,-28 -56,-39 -92,-46 -48,-9 -481,-9 -534,-1 -75,12 -150,37 -115,153 17,56 64,27 98,103l14 1351z"/>
  <path class="fil0" d="M18259 1338c26,30 40,28 69,55 61,81 91,1297 39,1409 -39,84 -148,-18 -110,207 9,56 67,49 154,56l1057 1c321,0 287,-23 375,-278 24,-72 21,-112 -28,-163 -61,-61 -149,-52 -198,20 -69,101 -124,114 -182,146 -95,55 -271,51 -379,34 -51,-8 -124,-26 -153,-70 -28,-55 -11,-235 -11,-306 0,-48 4,-111 -3,-156 -31,-184 405,-139 496,-73 17,12 86,94 165,-12 29,-39 16,-91 25,-145 8,-50 0,-101 -7,-151 -9,-59 -40,-76 -93,-90 -61,-15 -150,85 -231,88 -144,5 -149,-11 -290,8 -103,14 -132,-369 -73,-453 84,-119 507,-68 611,34 26,26 78,87 109,93 27,4 78,4 100,-7 19,-9 28,-39 40,-63 39,-78 23,-73 10,-153 -37,-228 -32,-200 -426,-200l-1013 12c-70,15 -59,95 -53,157z"/>
  <path class="fil0" d="M11762 1898c-45,30 -33,22 -94,22l-613 1c-85,14 -119,121 -65,181 1,2 3,4 5,6 94,102 519,3 799,55 -28,316 -232,737 -618,660 -235,-46 -411,-289 -502,-291 -261,-3 -71,250 11,337 403,424 1370,233 1562,-327 187,-543 -21,-1148 -580,-1351 -251,-92 -556,-98 -802,9 -69,31 -177,141 -222,216 -45,75 -93,208 -70,275 36,104 121,166 203,98 62,-50 -8,-187 205,-322 214,-135 571,-74 747,245 18,33 34,128 34,186z"/>
  <path class="fil0" d="M15306 1127c-383,90 -787,306 -904,714 -191,669 105,1071 661,1194 316,70 649,7 909,-142 75,-43 201,-180 176,-269 -13,-47 -45,-81 -88,-95 -31,-10 -39,-3 -64,5 -48,15 -31,2 -62,33 -621,595 -1290,-33 -1104,-699 79,-284 484,-715 913,-399 117,86 101,355 261,346 53,-3 80,-34 97,-82 9,-27 23,-308 -26,-369 -133,-165 -578,-281 -769,-237z"/>
  <path class="fil0" d="M1618 2174c-43,-31 -26,-208 -17,-261 25,-153 81,-215 211,-267 40,-17 76,-27 125,-32 79,-9 169,43 231,84 0,59 8,120 32,171 21,20 72,0 30,60 -44,-22 -44,-38 -84,-60 -6,-4 -17,-9 -21,-11 -96,-56 -31,-120 -211,-203 -51,43 -145,419 -296,519zm-584 1035c19,-36 61,-64 56,-111 0,-2 -1,-5 -2,-8l-15 -45c-56,-217 143,-431 282,-573 44,-32 47,-59 87,-93 92,-80 -25,-256 -25,-407 -1,-291 298,-623 601,-556 70,15 171,165 214,-27 89,-189 78,-172 215,-322 1,-2 3,-5 4,-6 2,-2 4,-4 5,-6 145,-139 491,-125 628,-9 107,90 182,362 152,503 -68,320 -143,-412 -434,-412 -492,0 -524,432 -465,804 12,82 127,200 201,223 3,1 13,4 17,5 111,32 95,21 217,6 83,-10 78,-18 142,-51 56,-30 99,5 55,57 -148,175 -310,202 -516,98 -11,-6 -355,-254 -357,-256 -28,-26 -89,-95 -119,-103 -11,23 -11,51 -25,80 -55,111 -135,239 -229,319 -28,23 -13,4 -34,21 -24,20 -24,44 -29,77 56,1 230,273 437,194 70,-27 177,-145 240,-131 0,102 -5,45 -49,110 -43,65 -96,120 -175,143 -178,51 -372,-39 -465,-196 -121,-202 -358,266 -358,356 8,-1 273,-197 316,-226 28,-17 37,-12 65,4 -4,36 -16,61 -36,89 -253,356 -340,340 -599,842 -80,155 -69,558 81,681 288,237 742,132 744,239 -838,-50 -1512,-266 -827,-1313z"/>
  <path class="fil0" d="M2558 2574c16,75 298,194 381,249 2,1 4,3 6,4 205,152 310,452 271,701 -11,67 -87,169 -139,209l-59 59c-155,155 -1161,444 -1168,461 -75,198 1557,-63 1555,-844 0,-158 8,-196 -51,-317 -123,-254 -310,-455 -573,-552 -90,-30 -160,-48 -223,30z"/>
  <path class="fil0" d="M3236 2195c2,82 85,73 162,127 105,68 222,61 319,155 242,235 167,670 108,960 -23,111 -168,311 -246,391 -120,132 -221,156 -333,257 -17,15 -127,88 -105,109 57,56 288,-81 360,-107 48,-17 32,-17 65,-50 49,-48 11,13 99,-69 398,-373 511,-664 427,-1200 -23,-142 -88,-230 -165,-322 -125,-150 -520,-343 -691,-251z"/>
  <path class="fil0" d="M7711 3644c9,89 72,38 44,215 -15,94 16,277 -13,356 -14,40 -10,40 -10,85 92,58 249,50 218,-59 -18,-66 -28,-23 -28,-120 0,-134 40,-126 62,-29 71,302 197,118 260,-53 12,-34 9,-16 17,-25 88,24 -6,233 10,275l38 40c150,2 285,35 233,-121 -19,-59 -6,-323 -6,-393 -1,-116 21,-83 42,-171 -11,-18 -16,-28 -34,-36 -53,-23 -142,-6 -230,-6 -18,38 -25,19 -42,53 -30,72 -53,211 -117,243 -87,-44 -32,-79 -99,-198 -82,-146 -58,-81 -203,-103 -48,-8 -108,-5 -142,47z"/>
  <path class="fil0" d="M10196 3961c0,-91 -23,-295 59,-322 24,-8 9,-4 36,-6 26,-2 59,0 85,0 47,70 44,144 -27,195 -36,26 -30,41 -68,70 -60,46 -12,62 -85,63zm-84 -455c31,47 57,37 49,88 -32,13 -73,8 -111,7 -163,-1 -86,31 -86,350 0,60 1,121 0,181 -1,128 -96,200 118,199 90,0 76,15 146,-31 0,-69 -2,-59 -32,-117 45,-87 38,-53 99,-113 41,-41 69,-107 118,-90 8,21 4,-7 7,26 0,4 -1,35 -2,40l-14 144c-10,41 -57,139 70,142 243,6 204,-25 179,-140l-2 -400c0,-100 34,-83 11,-180 -53,-14 -47,-16 -96,-12 -13,2 -48,3 -61,3 -28,-2 2,5 -28,-4l-28 -18c40,-59 54,-19 54,-106 -29,-45 -57,-45 -98,-26 -47,23 -39,49 -103,59 -20,-4 -29,-50 -107,-65 -58,-12 -81,-9 -83,63z"/>
  <path class="fil0" d="M17104 3623c0,76 20,93 22,158l0 362c-2,64 -22,81 -22,157 51,28 37,32 108,32 332,1 80,-95 191,-220l156 -151c14,23 5,-5 11,35 12,100 -22,272 -22,304 57,36 289,84 285,-42 -1,-38 -20,-51 -31,-75 -15,-32 0,-153 0,-201 0,-58 -6,-168 1,-221 10,-67 69,-96 -3,-156 -78,-13 -180,-18 -252,18 0,100 68,131 -35,197 -51,33 -84,125 -145,131 -28,-99 34,-278 14,-320 -25,-54 -203,-41 -278,-8z"/>
  <path class="fil0" d="M11074 3623c0,117 19,76 22,159 3,92 12,355 -14,430 -12,32 -8,53 -8,88 57,35 47,32 119,32 128,-1 207,14 144,-145l-9 -152c53,-24 20,-22 95,-21 52,0 88,-1 127,11l-2 136c-4,51 -29,-3 -29,139 54,29 29,31 98,32 48,0 159,19 185,-35 8,-80 -18,-83 -19,-154l0 -362c1,-74 39,-96 13,-161 -22,-28 -206,-23 -206,-23 -36,5 -36,10 -71,26 0,48 7,189 10,232l-156 8c-87,-30 -13,-175 -13,-240 -63,-39 -206,-35 -286,0z"/>
  <path class="fil0" d="M19474 4332c51,0 204,24 175,-91 -12,-47 -35,-46 -4,-108 11,-22 111,-109 138,-138 84,-112 55,13 61,158 3,53 11,7 -17,55 -111,188 241,113 241,113 70,-51 9,-103 -5,-145l3 -406c13,-116 129,-165 -139,-172 -49,-2 -80,3 -126,25 0,155 130,40 -124,299 -32,33 -12,21 -41,26 -41,-68 20,-299 18,-305 -18,-58 -148,-52 -193,-47 -157,15 -83,67 -73,154 3,29 8,415 -4,447 -36,96 -18,135 90,135z"/>
  <path class="fil0" d="M18257 3802l0 353c0,59 -87,178 97,177 138,-1 200,16 143,-144 -13,-35 -42,-156 28,-172l187 9c-17,167 13,88 -25,197 -11,31 -7,44 -7,78 72,45 349,80 275,-85 -38,-86 -21,-238 -21,-338 0,-50 -7,-101 11,-147 18,-45 39,-79 2,-117 -27,-20 -261,-39 -274,34 3,29 25,73 34,109 8,35 11,27 0,59 -8,26 4,2 -11,23 -24,34 -142,36 -188,-2 -78,-66 67,-126 -18,-235l-103 0c-61,-1 -165,-27 -149,82 6,46 19,69 19,119z"/>
  <path class="fil0" d="M13603 3706c67,39 77,127 41,190 -15,1 -24,2 -38,3 -33,1 -77,8 -87,-77 -8,-62 27,-98 84,-116zm-223 266c-2,28 -53,131 -70,162 -68,122 -67,51 -67,176 3,2 15,6 17,7 56,19 246,34 267,-20 13,-34 -36,-157 86,-241 139,71 -103,277 127,276 46,-1 91,-1 137,0 18,-22 45,-28 43,-74 -3,-38 -21,-46 -21,-103l0 -384c0,-85 86,-190 -105,-171 -63,7 -104,-2 -160,-8 -71,-9 -113,8 -167,10 -32,1 -49,-6 -78,6 -33,14 -4,0 -25,17l-53 55c-124,133 19,225 69,292z"/>
  <path class="fil0" d="M20499 3623c0,80 22,108 22,193l0 295c0,84 -22,108 -22,189 87,47 49,31 228,31 70,0 63,-86 43,-133 -24,-57 -25,-112 18,-160 30,5 104,90 112,148 19,141 -12,144 206,146 64,0 93,6 113,-60 -16,-71 -26,-36 -62,-90 -43,-65 -169,-238 -183,-285 40,-69 50,-72 88,-101 44,-35 37,-56 104,-99 0,-35 22,-129 -130,-102 -125,22 -102,26 -92,133 -77,40 -103,156 -191,138 0,-165 69,-224 6,-258 -45,-24 -78,-3 -130,-9 -58,-6 -73,-1 -130,24z"/>
  <path class="fil0" d="M14953 3619c-34,68 15,68 31,124l4 451c-124,82 -8,176 192,136 157,-32 -43,-118 41,-284 32,1 49,6 69,28l10 12c93,130 28,246 176,246 49,-1 98,-1 147,-1 25,-30 76,-64 24,-117 -23,-24 -29,-7 -52,-43 -9,-14 -23,-48 -32,-65 -24,-50 -48,-65 -78,-113 -66,-110 -108,-93 55,-220 38,-30 80,-90 94,-119 -52,-101 -223,-50 -241,-29 -57,69 72,72 -117,209 -13,10 -32,44 -66,53 -2,-2 -10,4 -17,-25l9 -111c9,-47 58,-68 35,-122 -23,-52 -229,-37 -284,-10z"/>
  <path class="fil0" d="M6748 4300c94,59 148,22 276,31 64,5 199,23 275,-11 49,-22 63,-93 63,-147l-33 -42 -73 -1c-9,14 -18,24 -27,36l-37 49c-90,-37 -118,34 -187,-56 9,-63 -3,-56 -3,-124 158,-64 215,40 257,-47 18,-41 5,-87 -11,-125 -91,-52 -83,-8 -184,4 -80,-22 -85,-170 31,-158 62,7 178,110 224,62 18,-43 11,-79 11,-127 -64,-43 -36,-40 -116,-51 -132,-17 -268,14 -339,7 -195,-18 -105,79 -105,181l0 362c0,70 -22,85 -22,157z"/>
  <path class="fil0" d="M8980 3848c0,153 16,262 -23,376 -56,160 309,113 412,116 51,-8 126,-3 159,-33 38,-35 55,-95 55,-145 -32,-21 -38,-35 -80,-32 -131,10 14,79 -226,74l-54 0c-16,-57 -10,-118 -10,-179 50,-12 80,-17 136,-7 59,11 128,9 127,-77 0,-40 -27,-98 -85,-105 -38,-5 -188,96 -178,-65 5,-82 109,-66 159,-43l52 35c2,1 3,4 5,5 24,18 -25,13 52,13 24,0 31,-9 49,-21 0,-166 18,-169 -264,-169l-127 11c-58,0 -89,-11 -131,0 -111,27 -28,75 -28,246z"/>
  <path class="fil0" d="M16194 3633c0,70 31,121 -13,177 -35,45 -119,271 -125,320 -10,94 -52,69 -52,170 37,25 48,30 99,32 52,2 82,4 124,-14 27,-49 27,-93 -33,-124 1,-65 86,-267 114,-337 6,-15 34,-172 129,-129 0,78 15,440 -8,487 -14,27 -16,21 -23,53 34,64 51,64 128,64 82,-1 107,15 168,-32 0,-82 -21,-95 -22,-157l0 -362c1,-64 22,-73 22,-154 -61,-50 -113,-13 -256,-34 -65,-9 -179,-5 -226,21 -12,7 -11,10 -26,19z"/>
  <path class="fil0" d="M21850 3876c77,2 88,26 88,96 -71,36 -95,-6 -104,-12l16 -84zm-282 424c51,27 34,32 98,32 170,2 65,-89 113,-212 390,0 176,89 233,180 28,45 229,45 258,13 29,-33 19,-76 -7,-106 -46,-53 -101,-252 -134,-331 -11,-26 -95,-214 -98,-219 -62,-80 -143,-82 -200,-25 -44,43 -20,55 -44,104 -53,111 -156,391 -188,437 -41,59 -31,51 -31,127z"/>
  <path class="fil0" d="M12484 3858c71,13 69,98 68,100 -19,45 -154,19 -68,-100zm-299 442c47,25 31,30 87,32 236,8 17,-146 167,-223 57,20 130,-4 176,41 17,17 1,-2 13,18 1,2 10,22 12,26 -85,183 121,137 243,127 56,-111 -15,-68 -38,-184 -12,-61 -4,-45 -40,-97 -36,-52 -16,-65 -86,-189 -10,-18 -51,-238 -157,-257 -111,-19 -135,96 -144,113 -84,161 -157,296 -209,478 0,2 -1,5 -2,8 -17,53 -22,6 -22,107z"/>
  <path class="fil0" d="M6357 4141c-140,-91 -121,62 -240,65 -96,2 -147,-15 -195,-107 -64,-122 -16,-551 293,-303 19,17 12,16 30,36 1,1 4,4 5,5 43,44 106,40 107,-66 1,-73 -4,-72 -50,-119 -76,-76 -217,-73 -319,-61 -195,59 -255,150 -321,328 -25,74 32,226 55,267 52,94 237,168 340,171 123,4 295,-72 295,-216z"/>
  <path class="fil0" d="M1586 4141c268,0 457,-419 627,-367 30,-1 19,7 61,8 95,4 74,-46 74,-137 4,-443 341,-273 433,-181 49,-75 -19,-134 -76,-178 -473,-106 -387,200 -461,389 -32,15 -126,21 -167,33 -122,33 -100,80 -235,191 -118,97 -263,211 -256,242z"/>
  <path class="fil0" d="M22605 3909c-3,1 -120,-8 -92,100 15,62 68,75 123,79 93,6 307,6 394,-10 95,-17 136,-168 -42,-180 -62,-4 -140,0 -204,0l-179 11z"/>
  <path class="fil0" d="M4865 3951c0,153 32,137 296,137 137,0 183,19 275,-42 0,-144 35,-148 -232,-148 -50,0 -235,-6 -275,6 -42,12 -34,12 -64,47z"/>
 </g>
</svg>
