<svg id="Layer_1" data-name="Layer 1"
  xmlns="http://www.w3.org/2000/svg" viewBox="0 0 35.68 40">
  <path class="cls-1" d="M5.66,19.11c-1.39,0-2.72-.49-3.81-1.48-2.33-2.13-2.47-5.69-.35-7.97,1.04-1.14,2.43-1.78,3.91-1.83,1.53-.05,2.97,.45,4.06,1.48,.69,.64,1.24,1.48,1.53,2.38,.25,.74,.35,1.48,.3,2.23,0,.25-.25,.49-.54,.45-.3,0-.49-.25-.45-.54,.05-.64-.05-1.24-.25-1.83-.25-.74-.69-1.44-1.29-1.98-.94-.84-2.13-1.29-3.37-1.24s-2.38,.59-3.22,1.53c-1.73,1.88-1.58,4.85,.3,6.58s4.85,1.58,6.58-.3c.2-.2,.49-.2,.69-.05,.2,.2,.2,.49,.05,.69-1.09,1.24-2.62,1.88-4.16,1.88h0Zm8.71,20.89c-1.78,0-3.51-.84-4.6-2.38-1.78-2.52-1.19-6.09,1.34-7.87,1.48-1.04,3.37-1.34,5.1-.74,.25,.1,.4,.35,.3,.64-.1,.25-.35,.4-.64,.3-1.44-.49-2.97-.25-4.21,.59-2.08,1.48-2.57,4.4-1.09,6.48,1.48,2.08,4.4,2.57,6.48,1.09,1.04-.74,1.68-1.78,1.88-3.02s-.05-2.47-.79-3.46c-.15-.25-.1-.54,.1-.69,.25-.15,.54-.1,.69,.1,.89,1.24,1.24,2.72,.94,4.21-.25,1.48-1.09,2.77-2.33,3.66-.89,.74-2.03,1.09-3.17,1.09ZM21.6,6.64s-.15,0-.2-.05c-1.73-.79-2.52-2.82-1.73-4.55S22.49-.48,24.22,.31c.84,.4,1.48,1.04,1.83,1.93,.35,.84,.3,1.78-.05,2.67-.3,.69-.84,1.29-1.53,1.63-.25,.15-.54,.05-.69-.2s-.05-.54,.2-.69c.49-.25,.84-.69,1.09-1.19,.25-.59,.3-1.29,.05-1.88-.25-.59-.69-1.09-1.29-1.39-1.24-.54-2.72,0-3.27,1.24s0,2.72,1.24,3.27c.25,.1,.35,.4,.25,.64-.05,.2-.25,.3-.45,.3Zm9.6,14.75c-.54,0-1.09-.1-1.63-.3-.94-.35-1.68-1.04-2.23-1.88-.15-.25-.05-.54,.15-.69,.25-.15,.54-.05,.69,.15,.4,.64,.99,1.19,1.73,1.48,1.78,.69,3.86-.2,4.55-1.98,.69-1.78-.2-3.86-1.98-4.55s-3.86,.2-4.55,1.98c-.1,.25-.4,.4-.64,.3s-.4-.4-.3-.64c.89-2.33,3.51-3.46,5.84-2.52,2.33,.89,3.46,3.51,2.52,5.84-.64,1.73-2.33,2.82-4.16,2.82Zm0,9.21c-.59,0-1.19-.2-1.68-.59-.59-.45-.94-1.09-.99-1.83-.05-.59,.05-1.19,.4-1.73,.15-.25,.45-.3,.69-.15s.3,.45,.15,.69c-.2,.35-.3,.69-.25,1.09,.05,.45,.3,.89,.64,1.14,.35,.3,.79,.4,1.29,.35,.45-.05,.89-.3,1.14-.64,.3-.35,.4-.79,.35-1.29-.05-.45-.3-.89-.64-1.14-.35-.3-.79-.4-1.29-.35-.25,.05-.49-.15-.54-.45-.05-.25,.15-.49,.45-.54,.74-.1,1.44,.1,1.98,.59,.59,.45,.94,1.09,.99,1.83,.15,1.48-.89,2.82-2.38,3.02h-.3Z"/>
  <path class="cls-1" d="M27.19,23.32c-1.29,1.68-3.17,2.77-5.25,3.07-2.08,.3-4.16-.25-5.84-1.53-1.68-1.29-2.77-3.17-3.07-5.25-.3-2.08,.25-4.16,1.53-5.84,1.29-1.68,3.17-2.77,5.25-3.07,2.13-.3,4.21,.25,5.89,1.53l.59-.79c-1.88-1.44-4.21-2.08-6.58-1.73s-4.45,1.58-5.89,3.46c-1.44,1.88-2.08,4.21-1.73,6.58s1.58,4.45,3.46,5.89c1.53,1.14,3.41,1.78,5.35,1.78,.4,0,.84,0,1.19-.05,2.38-.35,4.45-1.58,5.89-3.46,.15-.2,.1-.54-.1-.69-.2-.15-.54-.1-.69,.1Z"/>
</svg>
