<svg width="110" height="25" fill="none" xmlns="http://www.w3.org/2000/svg"><path d="M9.792 24h4.416L24.032.64h-4.896L12.16 18.112 5.248.64H.32L9.792 24ZM25.177 2.848c0 1.472 1.183 2.56 2.688 2.56 1.536 0 2.752-1.12 2.752-2.56 0-1.472-1.216-2.56-2.753-2.56-1.504 0-2.688 1.088-2.688 2.56ZM25.785 24h4.224V7.68h-4.224V24Zm6.388-12.64h2.944V24h4.224V11.36h3.648V7.68H39.34V3.04h-4.224v4.64h-2.944v3.68Zm29.734-3.68h-4v1.44a8.189 8.189 0 0 0-5.312-1.92c-4.704 0-8.48 3.84-8.48 8.64 0 4.8 3.776 8.64 8.48 8.64a8.189 8.189 0 0 0 5.312-1.92V24h4V7.68Zm-13.344 8.16c0-2.688 2.016-4.736 4.576-4.736 2.528 0 4.544 2.048 4.544 4.736 0 2.688-2.016 4.736-4.544 4.736-2.56 0-4.576-2.048-4.576-4.736ZM64.847 24h4.224V.64h-4.224V24ZM89.219 7.68h-4v1.44a8.189 8.189 0 0 0-5.312-1.92c-4.704 0-8.48 3.84-8.48 8.64 0 4.8 3.776 8.64 8.48 8.64a8.189 8.189 0 0 0 5.312-1.92V24h4V7.68Zm-13.344 8.16c0-2.688 2.016-4.736 4.576-4.736 2.528 0 4.544 2.048 4.544 4.736 0 2.688-2.016 4.736-4.544 4.736-2.56 0-4.576-2.048-4.576-4.736Zm25.629 8.64c4.704 0 8.48-3.84 8.48-8.64 0-4.8-3.776-8.64-8.48-8.64-1.92 0-3.713.64-5.12 1.76V.64h-4.225V24h3.936v-1.504a8.33 8.33 0 0 0 5.409 1.984Zm-.544-3.904c-2.528 0-4.576-2.08-4.576-4.736 0-2.688 2.047-4.736 4.576-4.736 2.528 0 4.576 2.048 4.576 4.736 0 2.656-2.048 4.736-4.576 4.736Z" fill="#064E3B"/></svg>